<svg width="1744" height="403" viewBox="0 0 1744 403" fill="none" xmlns="http://www.w3.org/2000/svg">
<path d="M135.22 380.547H90.2913V358.094H67.827V335.641H45.3627V313.189H22.8984V268.283H0.434082V134.717H22.8984V89.8114H45.3627V67.3586H67.827V44.9057H90.2913V22.4529H135.22V0H266.55V22.4529H311.478V44.9057H333.943V67.3586H356.407V89.8114H378.871V127.233H347.767C325.879 127.233 315.51 112.264 297.654 92.1143C274.038 64.48 241.205 50.6629 199.733 50.6629C118.516 50.6629 56.8829 116.294 56.8829 201.5C56.8829 286.706 119.668 352.337 203.189 352.337C275.19 352.337 331.063 309.734 331.063 255.041C331.063 240.073 322.999 232.589 305.718 232.589H213.557C194.549 232.589 182.453 222.801 182.453 207.833C182.453 192.864 193.397 184.229 213.557 184.229H378.295V313.189H357.559V335.641H335.095V358.094H312.63V380.547H267.702V403H135.22V380.547Z" fill="black"/>
<path d="M479.097 270.01V403H427.833V134.717H472.185V179.623H494.649V157.17H517.114V134.717H567.802V189.41H556.282C506.746 189.41 479.097 214.165 479.097 270.01Z" fill="black"/>
<path d="M604.09 359.245H581.625V325.278C581.625 279.221 611.002 256.193 668.027 251.587C710.651 248.133 743.484 244.103 743.484 215.317C743.484 195.743 725.051 181.925 698.555 181.925C644.41 181.925 651.322 218.195 603.514 218.195H585.658V179.623H608.122V157.17H645.562V134.717H737.724V157.17H773.436V197.47H795.901V403H746.364V380.547H703.163V403H604.09V359.245ZM674.363 358.67H690.491C726.78 358.67 749.244 340.247 749.244 308.582V287.857C749.244 279.797 745.788 275.767 738.876 275.767C729.084 275.767 720.443 283.827 684.155 286.705C649.018 290.16 629.434 298.22 629.434 323.551C629.434 346.004 645.562 358.67 674.363 358.67Z" fill="black"/>
<path d="M1053.38 403V358.094H1030.91V380.547H1008.45V403H923.2V380.547H881.152V358.094H858.687V313.189H836.223V224.529H858.687V179.623H881.152V157.17H923.2V134.717H1003.27V157.17H1026.31V179.623H1048.77V0H1100.03V403H1053.38ZM969.857 355.216C1017.09 355.216 1051.07 318.946 1051.07 268.859C1051.07 218.771 1017.09 182.501 969.857 182.501C922.624 182.501 889.216 218.196 889.216 268.859C889.216 319.521 922.624 355.216 969.857 355.216Z" fill="black"/>
<path d="M1376.52 403H1332.16V358.094H1309.7V380.547H1287.24V403H1215.81V380.547H1170.88V335.641H1148.42V134.717H1199.68V283.251C1199.68 324.127 1225.6 352.337 1262.47 352.337C1299.33 352.337 1325.25 324.127 1325.25 283.251V134.717H1376.52V403Z" fill="black"/>
<path d="M1447.37 359.245H1424.9V325.278C1424.9 279.221 1454.28 256.193 1511.3 251.587C1553.93 248.133 1586.76 244.103 1586.76 215.317C1586.76 195.743 1568.33 181.925 1541.83 181.925C1487.69 181.925 1494.6 218.195 1446.79 218.195H1428.93V179.623H1451.4V157.17H1488.84V134.717H1581V157.17H1616.71V197.47H1639.18V403H1589.64V380.547H1546.44V403H1447.37V359.245ZM1517.64 358.67H1533.77C1570.06 358.67 1592.52 340.247 1592.52 308.582V287.857C1592.52 279.797 1589.07 275.767 1582.15 275.767C1572.36 275.767 1563.72 283.827 1527.43 286.705C1492.3 290.16 1472.71 298.22 1472.71 323.551C1472.71 346.004 1488.84 358.67 1517.64 358.67Z" fill="black"/>
<path d="M1692.17 0H1743.43V403H1692.17V0Z" fill="black"/>
</svg>
